{"accessors":[{"bufferView":0,"componentType":5126,"count":36,"max":[2.0,0.5,1.5],"min":[-2.0,-0.5,-1.5],"normalized":false,"type":"VEC3"},{"bufferView":1,"componentType":5126,"count":36,"max":[0.0,0.0,7.630093023180962e-05,-1.0],"min":[-1.0,-1.0,-1.0,-1.0],"normalized":false,"type":"VEC4"},{"bufferView":2,"componentType":5126,"count":36,"max":[1.0,1.0,1.0],"min":[-1.0,-1.0,-1.0],"normalized":false,"type":"VEC3"},{"bufferView":3,"componentType":5126,"count":36,"max":[1.0,1.0],"min":[0.0,0.0],"normalized":false,"type":"VEC2"},{"bufferView":4,"componentType":5121,"count":36,"max":[35],"min":[0],"normalized":false,"type":"SCALAR"},{"bufferView":5,"componentType":5126,"count":36,"max":[8.5,5.5,7.5],"min":[-8.5,-5.5,-7.5],"normalized":false,"type":"VEC3"},{"bufferView":6,"componentType":5126,"count":36,"max":[4.5,5.5,4.5],"min":[-4.5,-5.5,-4.5],"normalized":false,"type":"VEC3"},{"bufferView":7,"componentType":5126,"count":1950,"max":[0.5,1.0,0.5],"min":[-0.5,-1.0,-0.5],"normalized":false,"type":"VEC3"},{"bufferView":8,"componentType":5126,"count":1950,"max":[1.0,0.0,1.0,1.0],"min":[-1.0,-2.157951530534774e-05,-1.0,1.0],"normalized":false,"type":"VEC4"},{"bufferView":9,"componentType":5126,"count":1950,"max":[1.0,1.0,1.0],"min":[-1.0,-1.0,-1.0],"normalized":false,"type":"VEC3"},{"bufferView":10,"componentType":5126,"count":1950,"max":[1.0,1.0],"min":[0.0,0.0],"normalized":false,"type":"VEC2"},{"bufferView":11,"componentType":5123,"count":10368,"max":[1949],"min":[0],"normalized":false,"type":"SCALAR"}],"asset":{"generator":"Godot Engine v4.6.1.stable.official@14d19694e0c88a3f9e82d899a0400f27a24c176e","version":"2.0"},"bufferViews":[{"buffer":0,"byteLength":432,"byteStride":12,"target":34962},{"buffer":0,"byteLength":576,"byteOffset":432,"byteStride":16,"target":34962},{"buffer":0,"byteLength":432,"byteOffset":1008,"byteStride":12,"target":34962},{"buffer":0,"byteLength":288,"byteOffset":1440,"byteStride":8,"target":34962},{"buffer":0,"byteLength":36,"byteOffset":1728,"target":34963},{"buffer":0,"byteLength":432,"byteOffset":1764,"byteStride":12,"target":34962},{"buffer":0,"byteLength":432,"byteOffset":2196,"byteStride":12,"target":34962},{"buffer":0,"byteLength":23400,"byteOffset":2628,"byteStride":12,"target":34962},{"buffer":0,"byteLength":31200,"byteOffset":26028,"byteStride":16,"target":34962},{"buffer":0,"byteLength":23400,"byteOffset":57228,"byteStride":12,"target":34962},{"buffer":0,"byteLength":15600,"byteOffset":80628,"byteStride":8,"target":34962},{"buffer":0,"byteLength":20736,"byteOffset":96228,"target":34963}],"buffers":[{"byteLength":116964,"uri":"temporary_level0.bin"}],"cameras":[{"perspective":{"yfov":0.7652727365493774,"zfar":4000.0,"znear":0.05000000074505806},"type":"perspective"}],"extensions":{"KHR_lights_punctual":{"lights":[{"type":"directional"}]},"OMI_physics_shape":{"shapes":[{"capsule":{"height":2.0,"radius":0.5},"type":"capsule"}]}},"extensionsUsed":["GODOT_single_root","KHR_lights_punctual","OMI_physics_body","OMI_physics_shape"],"images":[{"uri":"textures%2F.png"}],"materials":[{"pbrMetallicRoughness":{"baseColorFactor":[1.0,0.47353145480155945,0.029556745663285255,1.0],"baseColorTexture":{"index":0},"metallicFactor":0.0,"roughnessFactor":1.0}},{"pbrMetallicRoughness":{"baseColorFactor":[0.0666261613368988,0.42326775193214417,0.15292616188526154,1.0],"baseColorTexture":{"index":1},"metallicFactor":0.0,"roughnessFactor":1.0}},{"pbrMetallicRoughness":{"baseColorFactor":[0.0666261613368988,0.42326775193214417,0.15292616188526154,1.0],"baseColorTexture":{"index":2},"metallicFactor":0.0,"roughnessFactor":1.0}}],"meshes":[{"name":"Bridge22","primitives":[{"attributes":{"NORMAL":2,"POSITION":0,"TANGENT":1,"TEXCOORD_0":3},"indices":4,"material":0,"mode":4}]},{"name":"Bridge52","primitives":[{"attributes":{"NORMAL":2,"POSITION":0,"TANGENT":1,"TEXCOORD_0":3},"indices":4,"material":0,"mode":4}]},{"name":"Bridge62","primitives":[{"attributes":{"NORMAL":2,"POSITION":0,"TANGENT":1,"TEXCOORD_0":3},"indices":4,"material":0,"mode":4}]},{"name":"Platform62","primitives":[{"attributes":{"NORMAL":2,"POSITION":5,"TANGENT":1,"TEXCOORD_0":3},"indices":4,"material":1,"mode":4}]},{"name":"Platform72","primitives":[{"attributes":{"NORMAL":2,"POSITION":6,"TANGENT":1,"TEXCOORD_0":3},"indices":4,"material":2,"mode":4}]},{"primitives":[{"attributes":{"NORMAL":9,"POSITION":7,"TANGENT":8,"TEXCOORD_0":10},"indices":11,"mode":4}]}],"nodes":[{"children":[1,2,3,4,5,6,7,8],"name":"TemporaryLevel"},{"name":"WorldEnvironment"},{"extensions":{"KHR_lights_punctual":{"light":0}},"name":"DirectionalLight3D","rotation":[-0.46193990111351013,0.33141353726387024,0.19134177267551422,0.8001030683517456],"translation":[0.0,10.0,0.0]},{"mesh":0,"name":"Bridge22","translation":[0.0,0.0,10.5]},{"mesh":1,"name":"Bridge52","translation":[0.0,0.0,14.5]},{"mesh":2,"name":"Bridge62","translation":[0.0,0.0,18.5]},{"mesh":3,"name":"Platform62","translation":[0.0,-5.0,0.0]},{"mesh":4,"name":"Platform72","translation":[0.0,-5.0,26.0]},{"children":[9,10,11],"extensions":{"OMI_physics_body":{"motion":{"type":"kinematic"}}},"name":"CharacterBody3D","translation":[-0.9616603851318359,1.5000019073486328,26.95663070678711]},{"extensions":{"OMI_physics_body":{"collider":{"shape":0}}},"name":"CollisionShape3D"},{"mesh":5,"name":"MeshInstance3D"},{"camera":0,"name":"Camera3D","translation":[0.0,0.7878851294517517,0.0]}],"samplers":[{"magFilter":9729,"minFilter":9987,"wrapS":10497,"wrapT":10497}],"scene":0,"scenes":[{"nodes":[0]}],"textures":[{"sampler":0,"source":0},{"sampler":0,"source":0},{"sampler":0,"source":0}]}